<svg width="500" height="500" viewBox="0 0 500 500" fill="none" xmlns="http://www.w3.org/2000/svg">
<path fill-rule="evenodd" clip-rule="evenodd" d="M278.875 50H74V107.027V164.054V221.081V416.452C74 432.199 86.7659 444.965 102.514 444.965C118.261 444.965 131.027 432.199 131.027 416.452V221.081H277.819H278.875V221.062C294.133 220.506 306.333 207.962 306.333 192.568C306.333 177.174 294.133 164.629 278.875 164.073V164.054H277.819H131.027V107.027L278.875 107.027V50ZM278.875 333.023C285.793 333.023 292.595 332.527 299.247 331.568L378.711 445.055C382.829 450.936 390.936 452.365 396.817 448.247L420.503 431.662C426.384 427.544 427.813 419.438 423.695 413.557L352.748 312.234C393.321 287.354 420.387 242.593 420.387 191.512C420.387 113.357 357.03 50 278.875 50V107.033C325.631 107.599 363.36 145.677 363.36 192.568C363.36 239.458 325.631 277.536 278.875 278.102L278.875 278.108H221.848C206.684 278.108 194.39 290.401 194.39 305.566C194.39 320.73 206.684 333.023 221.848 333.023H278.875Z" fill="black"/>
</svg>
